HIERARCHY
ROOT Hips
{
	OFFSET 0.000000 0.000000 0.000000
	CHANNELS 6 Xposition Yposition Zposition Zrotation Yrotation Xrotation 
	JOINT LeftUpLeg_virtual
	{
		OFFSET 0.000000 0.000000 0.000000
		CHANNELS 3 Zrotation Yrotation Xrotation
		JOINT LeftUpLeg
		{
			OFFSET 10.205400 -3.823500 0.155100
			CHANNELS 3 Zrotation Yrotation Xrotation
			JOINT LeftLeg
			{
				OFFSET 0.708757 -12.982077 0.567790
				CHANNELS 3 Zrotation Yrotation Xrotation
				JOINT LeftFoot
				{
					OFFSET -0.708756 -10.717838 -2.184338
					CHANNELS 3 Zrotation Yrotation Xrotation
					JOINT LeftToeBase
					{
						OFFSET 0.108149 -7.191104 7.560241
						CHANNELS 3 Zrotation Yrotation Xrotation
						End Site
						{
							OFFSET 0.000000 0.000000 0.000000
						}
					}
				}
			}
		}
	}
	JOINT RightUpLeg_virtual
	{
		OFFSET 0.000000 0.000000 0.000000
		CHANNELS 3 Zrotation Yrotation Xrotation
		JOINT RightUpLeg
		{
			OFFSET -10.205400 -3.823500 0.005500
			CHANNELS 3 Zrotation Yrotation Xrotation
			JOINT RightLeg
			{
				OFFSET -0.708756 -12.982134 0.610632
				CHANNELS 3 Zrotation Yrotation Xrotation
				JOINT RightFoot
				{
					OFFSET 0.708754 -10.717769 -1.945823
					CHANNELS 3 Zrotation Yrotation Xrotation
					JOINT RightToeBase
					{
						OFFSET -0.108140 -7.191069 7.372968
						CHANNELS 3 Zrotation Yrotation Xrotation
						End Site
						{
							OFFSET 0.000000 0.000000 0.000000
						}
					}
				}
			}
		}
	}
	JOINT Spine_virtual
	{
		OFFSET 0.000000 0.000000 0.000000
		CHANNELS 3 Zrotation Yrotation Xrotation
		JOINT Spine
		{
			OFFSET 0.000000 6.876099 0.125700
			CHANNELS 3 Zrotation Yrotation Xrotation
			JOINT Spine1
			{
				OFFSET 0.000000 8.022060 0.146608
				CHANNELS 3 Zrotation Yrotation Xrotation
				JOINT Spine2
				{
					OFFSET 0.000000 9.168068 0.167552
					CHANNELS 3 Zrotation Yrotation Xrotation
					JOINT Neck_virtual
					{
						OFFSET 0.000000 0.000000 0.000000
						CHANNELS 3 Zrotation Yrotation Xrotation
						JOINT Neck
						{
							OFFSET 0.000000 10.314075 0.188496
							CHANNELS 3 Zrotation Yrotation Xrotation
							JOINT Head
							{
								OFFSET 0.000000 7.643700 -2.377400
								CHANNELS 3 Zrotation Yrotation Xrotation
								End Site
								{
									OFFSET 0.000000 0.000000 0.000000
								}
							}
						}
					}
					JOINT LeftShoulder_virtual
					{
						OFFSET 0.000000 0.000000 0.000000
						CHANNELS 3 Zrotation Yrotation Xrotation
						JOINT LeftShoulder
						{
							OFFSET 4.392200 8.824978 0.174984
							CHANNELS 3 Zrotation Yrotation Xrotation
							JOINT LeftArm
							{
								OFFSET 8.771219 -2.981674 -0.026999
								CHANNELS 3 Zrotation Yrotation Xrotation
								JOINT LeftForeArm
								{
									OFFSET 8.512804 0.000000 -0.000000
									CHANNELS 3 Zrotation Yrotation Xrotation
									JOINT LeftHand
									{
										OFFSET 18.484802 0.000000 -0.000000
										CHANNELS 3 Zrotation Yrotation Xrotation
										End Site
										{
											OFFSET 0.000000 0.000000 0.000000
										}
									}
								}
							}
						}
					}
					JOINT RightShoulder_virtual
					{
						OFFSET 0.000000 0.000000 0.000000
						CHANNELS 3 Zrotation Yrotation Xrotation
						JOINT RightShoulder
						{
							OFFSET -4.392200 8.824993 0.141379
							CHANNELS 3 Zrotation Yrotation Xrotation
							JOINT RightArm
							{
								OFFSET -8.771282 -2.981682 -0.094208
								CHANNELS 3 Zrotation Yrotation Xrotation
								JOINT RightForeArm
								{
									OFFSET -8.494598 0.000000 0.000000
									CHANNELS 3 Zrotation Yrotation Xrotation
									JOINT RightHand
									{
										OFFSET -18.483803 0.000000 0.000001
										CHANNELS 3 Zrotation Yrotation Xrotation
										End Site
										{
											OFFSET 0.000000 0.000000 0.000000
										}
									}
								}
							}
						}
					}
				}
			}
		}
	}
}
MOTION
Frames: 7
Frame Time: 0.033333
22.254690 36.459072 -0.973978 179.910803 -6.308577 -179.770388 -2.371289 -2.097238 15.688559 10.355915 -9.675148 -37.560597 3.205819 1.332917 20.770417 -7.104161 0.203061 8.640929 0.000000 0.000000 0.000000 2.461831 0.418119 12.632927 4.982279 -2.509695 -33.954755 -5.459941 1.127188 26.042482 3.499132 7.685109 14.344746 0.000000 0.000000 0.000000 -0.205050 1.586597 10.307955 0.448202 -1.314567 6.174740 1.242265 -1.083848 9.437008 0.004093 0.050248 -0.012888 1.610058 0.182128 9.119285 -7.774593 1.966875 -3.659796 0.000000 0.000000 0.000000 2.833912 0.869701 6.289999 -3.945025 -11.381628 3.695231 -23.398411 -3.325472 -27.958222 -8.080154 -68.535443 6.740922 0.000000 0.000000 0.000000 -1.234052 2.423316 5.359152 18.045430 18.397415 0.982025 46.934014 -8.444317 36.299935 -164.149841 75.487018 -164.781524 0.000000 0.000000 0.000000 
22.583326 36.541718 -1.119321 179.678207 -6.417924 -179.583268 -2.393529 -2.125617 16.408988 10.600382 -9.510008 -37.298249 3.574413 1.408389 18.957240 -7.042093 0.413472 9.162628 0.000000 0.000000 0.000000 2.116797 1.374449 13.181485 6.114746 -3.079138 -33.554486 -5.572938 0.865074 24.809506 2.805811 7.427708 14.482506 0.000000 0.000000 0.000000 -0.452737 2.250354 10.508255 0.344827 -1.866240 6.010777 1.215186 -1.536262 9.373831 0.055170 -0.035987 -0.007613 1.596513 -0.364475 9.228368 -9.635218 2.938490 -4.702248 0.000000 0.000000 0.000000 2.924784 0.391630 6.381418 -1.136922 -11.953681 2.958452 -16.929872 -5.966635 -31.586480 -7.637416 -64.994557 6.433183 0.000000 0.000000 0.000000 -1.173737 1.999021 5.395214 18.615201 18.861021 0.594298 45.977220 -9.343330 35.346728 -165.846200 75.396669 -166.901942 0.000000 0.000000 0.000000 
22.857685 36.642620 -1.314935 179.708151 -6.527183 -179.688658 -2.752277 -0.540016 16.234690 10.246103 -9.030039 -37.251309 3.961906 1.667772 18.298215 -6.758093 0.843929 9.977090 0.000000 0.000000 0.000000 2.231160 2.625554 13.880896 6.972126 -3.765132 -33.079894 -5.721832 0.741392 24.021405 2.109570 7.120418 14.255932 0.000000 0.000000 0.000000 -0.556607 2.978449 10.805360 0.216418 -2.625030 5.842643 1.171780 -1.842361 9.443344 0.012837 0.047512 -0.005874 1.595153 -0.738596 9.388029 -11.676393 3.954738 -5.699916 0.000000 0.000000 0.000000 2.986058 0.041016 6.457944 1.803773 -12.290094 1.925192 -9.994764 -8.995314 -35.100144 -7.189539 -60.380047 6.083295 0.000000 0.000000 0.000000 -1.074628 1.583879 5.560783 19.179899 19.664760 0.367130 45.181537 -10.203767 34.262121 -166.307525 75.414236 -167.834769 0.000000 0.000000 0.000000 
23.077831 36.725475 -1.587398 -179.912182 -7.599707 -179.865081 -3.044873 1.090211 15.794488 9.091825 -7.917059 -37.715717 4.185840 2.617628 18.177645 -5.663523 2.023878 11.750281 0.000000 0.000000 0.000000 2.684254 3.185309 14.792882 7.675735 -4.153842 -32.627957 -5.826793 0.914617 23.369284 1.353535 6.706833 13.720494 0.000000 0.000000 0.000000 -0.335822 3.422455 11.032163 0.262580 -3.313107 5.524031 1.185667 -2.280981 9.520248 0.003417 0.030362 0.010921 1.444629 -1.028859 9.584766 -13.879253 4.975502 -6.521746 0.000000 0.000000 0.000000 2.909655 -0.394789 6.601321 4.380361 -12.458825 1.012955 -3.495789 -12.327096 -38.637622 -6.740329 -55.590049 5.642427 0.000000 0.000000 0.000000 -1.110493 1.063800 5.803669 19.730832 20.513727 0.107424 44.765504 -11.158321 32.947583 -166.684278 75.601417 -168.722420 0.000000 0.000000 0.000000 
23.214096 36.790424 -1.915889 179.964816 -8.611549 -179.700406 -3.230883 2.407191 15.617619 6.659536 -5.929019 -38.057606 4.228106 4.421169 17.341215 -3.833038 3.735217 14.020954 0.000000 0.000000 0.000000 2.604298 3.967556 15.610264 8.179370 -4.317422 -32.293291 -5.902708 0.918150 22.776811 0.616107 6.171171 13.498825 0.000000 0.000000 0.000000 -0.340538 3.988682 11.022540 0.112236 -3.766721 5.021295 1.064647 -2.727095 9.603389 -0.009503 -0.065606 0.006554 1.283875 -1.408671 9.891336 -15.981374 5.970934 -7.270226 0.000000 0.000000 0.000000 2.897878 -0.644977 6.858607 6.331602 -12.116546 -0.134760 1.836947 -16.202390 -42.150170 -6.538455 -51.448571 5.320468 0.000000 0.000000 0.000000 -1.099908 0.813421 6.112204 20.208110 21.239887 -0.159325 44.612265 -12.270001 31.529164 -166.743318 75.948835 -169.323982 0.000000 0.000000 0.000000 
23.293591 36.832863 -2.277542 -179.991631 -9.698841 -179.690461 -3.063628 3.074716 15.858205 4.798693 -4.379460 -38.454173 4.054624 8.206243 16.714578 -2.029562 5.258668 15.858839 0.000000 0.000000 0.000000 2.691313 4.426145 16.351802 8.559663 -4.495175 -31.781762 -5.866181 0.915770 22.137408 -0.005666 5.749833 13.558823 0.000000 0.000000 0.000000 -0.145696 4.355805 11.126109 0.055219 -3.838795 4.546197 0.947940 -2.940113 9.682975 0.019013 0.014680 0.061143 1.079466 -1.813700 10.135129 -17.980229 6.928072 -7.869163 0.000000 0.000000 0.000000 2.761060 -1.038590 7.018472 7.426940 -11.527296 -1.109343 6.075715 -20.357657 -45.792556 -6.435532 -48.679113 4.982895 0.000000 0.000000 0.000000 -1.208027 0.401880 6.295144 20.642485 21.692170 -0.475860 44.790082 -13.521020 29.805351 -166.813478 76.345218 -169.946144 0.000000 0.000000 0.000000 
23.340109 36.858494 -2.644662 -179.967152 -10.929924 -179.601286 -2.813497 3.128790 16.088389 3.528733 -3.740835 -38.914279 3.965990 10.799832 16.452261 -0.359188 6.679665 17.290834 0.000000 0.000000 0.000000 2.735762 4.345300 16.853546 8.803191 -4.766228 -31.094740 -5.658521 0.812682 21.546356 -0.559990 5.345496 13.437777 0.000000 0.000000 0.000000 0.089365 4.295601 11.146866 -0.005084 -3.726979 4.149335 0.775077 -3.165072 9.795781 0.004332 -0.010204 0.036910 0.833630 -1.935132 10.356353 -19.583351 7.453559 -8.314960 0.000000 0.000000 0.000000 2.599746 -1.181524 7.115595 7.779988 -10.466099 -1.801044 9.160851 -24.688559 -49.340672 -6.300231 -47.732545 4.534239 0.000000 0.000000 0.000000 -1.339427 0.243079 6.466805 20.912151 22.182148 -0.687672 45.221125 -15.045952 27.953948 -166.095748 76.541463 -169.755964 0.000000 0.000000 0.000000 
